<svg id="Layer_1" data-name="Layer 1" xmlns="http://www.w3.org/2000/svg" xmlns:xlink="http://www.w3.org/1999/xlink" viewBox="0 0 512 512"><defs><style>.cls-1{fill:none;}.cls-2{fill:#3c48bb;}.cls-3{fill:#a42323;}.cls-4{fill:url(#New_Pattern);}.cls-5{fill:#685035;stroke:#fff;stroke-linecap:square;stroke-linejoin:round;stroke-width:10px;}</style><pattern id="New_Pattern" data-name="New Pattern" width="193" height="194" patternTransform="translate(-2869.51 -411.45) scale(3.07)" patternUnits="userSpaceOnUse" viewBox="0 0 193 194"><rect class="cls-1" width="193" height="194"/><rect class="cls-2" width="192" height="192"/><polyline class="cls-3" points="193 2 193 194 1 194"/></pattern></defs><title>logo1.2Artboard 1</title><polygon class="cls-4" points="278.41 39.97 278.41 0 240.84 0 240.84 39.17 208.07 39.17 208.07 0 170.5 0 170.5 39.17 136.93 39.17 136.93 0 99.36 0 99.36 39.17 66.58 39.17 66.58 0 29.01 0 29.01 39.97 13.03 107.11 294.4 107.11 278.41 39.97"/><polygon class="cls-4" points="32.21 480.41 16.23 511.59 291.2 511.59 275.21 480.41 32.21 480.41"/><path class="cls-4" d="M267.22,468.42V119.1h-227V469.22h227ZM123.34,426.86h-48V377.3a24,24,0,1,1,48,0ZM82.57,303.75V289.37h39.17v14.38ZM224.06,445.24H190.48V432.45h33.58Zm16.78-18.38H207.27V414.07h33.57ZM232.05,275v49.56h-48V275a23.55,23.55,0,0,1,24-24A24,24,0,0,1,232.05,275Zm-30.38-82.34H164.9V179.06h36.77Zm-54.35-33.57h36.77v13.59H147.32ZM77.77,172.66a24,24,0,0,1,48,0v49.56h-48ZM63.39,267.78h39.16v14.39H63.39Z"/><path class="cls-5" d="M436,459l-31.5-89.11H273.92L243.65,459H169.38L304.23,98.89H376.6L510.44,459ZM385.62,312.51,339.31,179.4c-.16-.5-.32-1-.48-1.57q-.25.84-.51,1.62L292.49,312.51Z"/></svg>